<svg width="108" height="196" viewBox="0 0 108 196" fill="none" xmlns="http://www.w3.org/2000/svg">
<path d="M30.6544 128.752L32.4516 138.424M30.6544 128.752L31.5207 92.4102M30.6544 128.752L36.6832 116.801M32.4516 138.424L40.077 125.684M32.4516 138.424L52.3838 144.56M32.4516 138.424L52.3838 175.673M90.8618 156.675L87.269 136.155M90.8618 156.675L103.802 171.275M90.8618 156.675L85.3993 162.537M103.802 171.275H117.461M103.802 171.275L95.1751 182.042M117.461 171.275L125.189 165.07M117.461 171.275L110.092 195M132.917 158.865L157 165.8L136.691 172.735M132.917 158.865L133.96 162.697M132.917 158.865L125.189 165.07M136.691 172.735L122.673 189.89M136.691 172.735L133.96 162.697M122.673 189.89L131.659 167.26M122.673 189.89L110.092 195M133.96 162.697L131.659 167.26M125.189 165.07L131.659 167.26M110.092 195L95.1751 182.042M110.092 195L89.0645 194.635M95.1751 182.042L89.0645 194.635M95.1751 182.042L52.3838 175.673M95.1751 182.042L92.7655 169.424L85.3993 162.537M89.0645 194.635L52.3838 175.673M84.212 66.1533L87.0876 46.2606M84.212 66.1533L101.286 57.4845M84.212 66.1533L64.9533 60.3802M84.212 66.1533V77.1925M87.0876 46.2606L101.286 57.4845M87.0876 46.2606L54.0184 49.6537M87.0876 46.2606L97.1521 31.3832M101.286 57.4845L90.6034 93.5893M101.286 57.4845L109.373 75.6435M54.0184 49.6537L59.5899 25.3269M54.0184 49.6537L31.5207 44.9831M54.0184 49.6537L64.9533 60.3802M97.1521 110.501L109.373 75.6435M97.1521 110.501L74.1984 88.552M97.1521 110.501L63.9245 109.197M97.1521 110.501L83.3909 146.221M97.1521 110.501L90.6034 93.5893M109.373 75.6435L105.779 42.9755L101.286 25.2728M101.286 25.2728L65.1613 1M101.286 25.2728L97.1521 31.3832M65.1613 1L16.0968 19.5616M65.1613 1L63.1132 9.94262M8.36866 38.413L1 25.2728V17.2427L5.13364 18.3377L8.54839 22.4172M8.36866 38.413L35.5069 51.5532M8.36866 38.413L8.54839 22.4172M35.5069 51.5532L31.5207 44.9831M35.5069 51.5532L64.9533 60.3802M35.5069 51.5532L60.6994 75.6435M35.5069 51.5532L31.5207 92.4102M35.5069 51.5532L63.9245 109.197M90.6034 93.5893L84.212 77.1925M59.5899 25.3269L97.1521 31.3832M59.5899 25.3269L63.1132 9.94262M16.0968 19.5616L27.5344 38.413M16.0968 19.5616L8.54839 22.4172M27.5344 38.413L63.1132 9.94262M27.5344 38.413L31.5207 44.9831M60.6994 75.6435L84.212 77.1925M60.6994 75.6435L74.1984 88.552M31.5207 92.4102L45.3682 99.5838M63.9245 109.197L74.1984 88.552M63.9245 109.197L45.3682 99.5838M63.9245 109.197L40.077 125.684M63.9245 109.197L52.3838 144.56M83.3909 146.221L85.3993 162.537M83.3909 146.221L52.3838 144.56M85.3993 162.537L52.3838 175.673M45.3682 99.5838L36.6832 116.801M36.6832 116.801L40.077 125.684M52.3838 144.56V175.673" stroke="#B9FF1F"/>
</svg>
