<svg width="31" height="30" viewBox="0 0 31 30" fill="none" xmlns="http://www.w3.org/2000/svg">
<rect width="17.1197" height="17.1196" rx="1.55198" transform="matrix(0.712784 0.701383 0.712663 -0.701506 6.36914 13.0117)" fill="#91D700"/>
<g filter="url(#filter0_d_83_2995)">
<g clip-path="url(#clip0_83_2995)">
<rect width="17.0619" height="17.1128" rx="1.55198" transform="matrix(-0.712724 -0.701445 0.712724 -0.701445 15.1602 24.9717)" fill="white"/>
<g filter="url(#filter1_f_83_2995)">
<ellipse cx="7.25593" cy="11.0751" rx="7.25593" ry="11.0751" transform="matrix(0.370798 -0.922429 0.937261 0.36493 3.45215 5.72217)" fill="#B9FF1F"/>
</g>
<g filter="url(#filter2_f_83_2995)">
<path d="M10.3697 34.0649C5.16457 21.4858 19.7559 -3.46976 33.8201 4.17678C38.4717 6.70581 46.6021 16.189 46.6021 16.189L20.2476 41.8177C20.2476 41.8177 12.4103 38.9964 10.3697 34.0649Z" fill="#B9FF1F"/>
</g>
<g filter="url(#filter3_f_83_2995)">
<path d="M14.0196 9.0689C16.8119 13.3109 15.7508 18.8695 11.6494 21.4845C7.54808 24.0995 1.95965 22.7806 -0.832694 18.5387C-3.62503 14.2967 -2.56387 8.73803 1.53748 6.12302C5.63883 3.50802 11.2273 4.82693 14.0196 9.0689Z" fill="#B9FF1F"/>
</g>
<g filter="url(#filter4_f_83_2995)">
<ellipse cx="8.70047" cy="7.02935" rx="8.70047" ry="7.02935" transform="matrix(0.832343 0.559471 -0.568467 0.819172 8.66406 10.5527)" fill="#B9FF1F"/>
</g>
<path d="M21.6773 16.3256C20.7993 16.9688 19.7026 17.2529 18.6165 17.1186L18.6165 14.3032C18.9456 14.2354 19.1902 14.1672 19.457 14.1022C19.7462 14.0317 20.0015 13.8647 20.1796 13.6297C20.3576 13.3947 20.4474 13.1061 20.4335 12.8133C20.4197 12.5205 20.3031 12.2414 20.1036 12.0237C19.9041 11.806 19.6341 11.663 19.3396 11.6193C19.0451 11.5755 18.7442 11.6336 18.4883 11.7837C18.2325 11.9337 17.9436 12.3589 17.9365 12.8133L17.9365 13.4224L17.9365 16.978L17.9365 22.387C16.7393 23.5615 16.1468 24.3779 15.1348 24.3333C15.135 22.8188 15.1348 12.6527 15.1348 12.6527C15.1348 11.0781 15.972 10.0071 16.9007 9.43688C17.8293 8.86665 18.946 8.67189 20.0172 8.89336C21.0884 9.11483 22.0311 9.73537 22.6481 10.6252C23.2651 11.515 23.5086 12.6051 23.3276 13.6675C23.1467 14.7299 22.5554 15.6824 21.6773 16.3256Z" fill="black"/>
</g>
</g>
<path d="M13.6851 5.28758L10.5812 1.98975L10.5459 12.5775C10.5459 15.8754 13.1208 16.7779 14.4964 16.8821V13.9661C13.7627 13.8828 13.6499 12.9594 13.6851 12.5081V5.28758Z" fill="black"/>
<defs>
<filter id="filter0_d_83_2995" x="0.458822" y="0.491765" width="29.4388" height="29.054" filterUnits="userSpaceOnUse" color-interpolation-filters="sRGB">
<feFlood flood-opacity="0" result="BackgroundImageFix"/>
<feColorMatrix in="SourceAlpha" type="matrix" values="0 0 0 0 0 0 0 0 0 0 0 0 0 0 0 0 0 0 127 0" result="hardAlpha"/>
<feOffset dy="2.03294"/>
<feGaussianBlur stdDeviation="1.27059"/>
<feComposite in2="hardAlpha" operator="out"/>
<feColorMatrix type="matrix" values="0 0 0 0 0 0 0 0 0 0 0 0 0 0 0 0 0 0 0.06 0"/>
<feBlend mode="normal" in2="BackgroundImageFix" result="effect1_dropShadow_83_2995"/>
<feBlend mode="normal" in="SourceGraphic" in2="effect1_dropShadow_83_2995" result="shape"/>
</filter>
<filter id="filter1_f_83_2995" x="-4.43207" y="-14.978" width="41.91" height="36.0975" filterUnits="userSpaceOnUse" color-interpolation-filters="sRGB">
<feFlood flood-opacity="0" result="BackgroundImageFix"/>
<feBlend mode="normal" in="SourceGraphic" in2="BackgroundImageFix" result="shape"/>
<feGaussianBlur stdDeviation="5.11447" result="effect1_foregroundBlur_83_2995"/>
</filter>
<filter id="filter2_f_83_2995" x="-2.63002" y="-9.17348" width="61.1546" height="62.9134" filterUnits="userSpaceOnUse" color-interpolation-filters="sRGB">
<feFlood flood-opacity="0" result="BackgroundImageFix"/>
<feBlend mode="normal" in="SourceGraphic" in2="BackgroundImageFix" result="shape"/>
<feGaussianBlur stdDeviation="5.96101" result="effect1_foregroundBlur_83_2995"/>
</filter>
<filter id="filter3_f_83_2995" x="-12.6205" y="-5.44916" width="38.4276" height="38.5062" filterUnits="userSpaceOnUse" color-interpolation-filters="sRGB">
<feFlood flood-opacity="0" result="BackgroundImageFix"/>
<feBlend mode="normal" in="SourceGraphic" in2="BackgroundImageFix" result="shape"/>
<feGaussianBlur stdDeviation="5.11447" result="effect1_foregroundBlur_83_2995"/>
</filter>
<filter id="filter4_f_83_2995" x="-7.29669" y="2.70429" width="38.4137" height="36.9489" filterUnits="userSpaceOnUse" color-interpolation-filters="sRGB">
<feFlood flood-opacity="0" result="BackgroundImageFix"/>
<feBlend mode="normal" in="SourceGraphic" in2="BackgroundImageFix" result="shape"/>
<feGaussianBlur stdDeviation="5.46719" result="effect1_foregroundBlur_83_2995"/>
</filter>
<clipPath id="clip0_83_2995">
<rect width="17.0619" height="17.1128" rx="1.55198" transform="matrix(-0.712724 -0.701445 0.712724 -0.701445 15.1602 24.9717)" fill="white"/>
</clipPath>
</defs>
</svg>
