<svg width="36" height="25" viewBox="0 0 36 25" fill="none" xmlns="http://www.w3.org/2000/svg">
<path d="M34.3176 3.84952C34.1225 3.12569 33.7412 2.46557 33.2117 1.93488C32.6822 1.40418 32.023 1.02142 31.2996 0.824685C28.6173 0.0881742 17.8865 0.0761849 17.8865 0.0761849C17.8865 0.0761849 7.15744 0.0641948 4.47345 0.768162C3.75052 0.973951 3.09262 1.36213 2.56292 1.89543C2.03322 2.42872 1.64951 3.08924 1.44862 3.81355C0.741229 6.49582 0.734378 12.059 0.734378 12.059C0.734378 12.059 0.727526 17.6497 1.42978 20.3045C1.82373 21.7724 2.97988 22.932 4.44948 23.3277C7.15915 24.0642 17.8608 24.0762 17.8608 24.0762C17.8608 24.0762 28.5916 24.0882 31.2739 23.3859C31.9975 23.1895 32.6574 22.8076 33.1882 22.278C33.719 21.7484 34.1024 21.0894 34.3004 20.3662C35.0095 17.6856 35.0147 12.1241 35.0147 12.1241C35.0147 12.1241 35.0489 6.53179 34.3176 3.84952ZM14.454 17.2129L14.4626 6.93601L23.3812 12.083L14.454 17.2129Z" fill="white"/>
</svg>
