<svg width="16" height="16" viewBox="0 0 16 16" fill="none" xmlns="http://www.w3.org/2000/svg">
<path d="M7.99967 1.3335C7.63148 1.3335 7.33301 1.63197 7.33301 2.00016V3.3335C7.33301 3.70169 7.63148 4.00016 7.99967 4.00016C8.36786 4.00016 8.66634 3.70169 8.66634 3.3335V2.00016C8.66634 1.63197 8.36786 1.3335 7.99967 1.3335Z" fill="#777E91"/>
<path d="M7.99967 12.0002C7.63148 12.0002 7.33301 12.2986 7.33301 12.6668V14.0002C7.33301 14.3684 7.63148 14.6668 7.99967 14.6668C8.36786 14.6668 8.66634 14.3684 8.66634 14.0002V12.6668C8.66634 12.2986 8.36786 12.0002 7.99967 12.0002Z" fill="#777E91"/>
<path d="M13.9997 7.3335C14.3679 7.3335 14.6663 7.63197 14.6663 8.00016C14.6663 8.36835 14.3679 8.66683 13.9997 8.66683H12.6663C12.2982 8.66683 11.9997 8.36835 11.9997 8.00016C11.9997 7.63197 12.2982 7.3335 12.6663 7.3335H13.9997Z" fill="#777E91"/>
<path d="M3.99967 8.00016C3.99967 7.63197 3.7012 7.3335 3.33301 7.3335H1.99967C1.63148 7.3335 1.33301 7.63197 1.33301 8.00016C1.33301 8.36835 1.63148 8.66683 1.99967 8.66683H3.33301C3.7012 8.66683 3.99967 8.36835 3.99967 8.00016Z" fill="#777E91"/>
<path d="M11.7709 3.28618C12.0313 3.02583 12.4534 3.02583 12.7138 3.28618C12.9741 3.54653 12.9741 3.96864 12.7138 4.22899L11.7709 5.1718C11.5106 5.43215 11.0885 5.43215 10.8281 5.1718C10.5678 4.91145 10.5678 4.48934 10.8281 4.22899L11.7709 3.28618Z" fill="#777E91"/>
<path d="M5.17127 10.8287C4.91092 10.5683 4.48881 10.5683 4.22847 10.8287L3.28566 11.7715C3.02531 12.0318 3.02531 12.4539 3.28566 12.7143C3.54601 12.9746 3.96812 12.9746 4.22847 12.7143L5.17127 11.7715C5.43162 11.5111 5.43162 11.089 5.17127 10.8287Z" fill="#777E91"/>
<path d="M12.7137 11.7714C12.9741 12.0318 12.9741 12.4539 12.7137 12.7142C12.4534 12.9746 12.0313 12.9746 11.7709 12.7142L10.8281 11.7714C10.5678 11.5111 10.5678 11.089 10.8281 10.8286C11.0885 10.5683 11.5106 10.5683 11.7709 10.8286L12.7137 11.7714Z" fill="#777E91"/>
<path d="M5.17126 5.17176C5.4316 4.91141 5.4316 4.4893 5.17126 4.22895L4.22845 3.28614C3.9681 3.02579 3.54599 3.02579 3.28564 3.28614C3.02529 3.54649 3.02529 3.9686 3.28564 4.22895L4.22845 5.17176C4.4888 5.43211 4.91091 5.43211 5.17126 5.17176Z" fill="#777E91"/>
<path fill-rule="evenodd" clip-rule="evenodd" d="M7.99967 9.3335C8.73605 9.3335 9.33301 8.73654 9.33301 8.00016C9.33301 7.26378 8.73605 6.66683 7.99967 6.66683C7.26329 6.66683 6.66634 7.26378 6.66634 8.00016C6.66634 8.73654 7.26329 9.3335 7.99967 9.3335ZM7.99967 10.6668C9.47243 10.6668 10.6663 9.47292 10.6663 8.00016C10.6663 6.5274 9.47243 5.3335 7.99967 5.3335C6.52692 5.3335 5.33301 6.5274 5.33301 8.00016C5.33301 9.47292 6.52692 10.6668 7.99967 10.6668Z" fill="#777E91"/>
</svg>
