<svg width="25" height="25" viewBox="0 0 25 25" fill="none" xmlns="http://www.w3.org/2000/svg">
<path fill-rule="evenodd" clip-rule="evenodd" d="M12.4307 0.0761719C5.6349 0.0761719 0.126953 5.58412 0.126953 12.3799C0.126953 17.8151 3.6513 22.4275 8.54122 24.0558C9.15678 24.1668 9.37882 23.7881 9.37882 23.4624C9.37882 23.1701 9.36895 22.3954 9.36525 21.3703C5.94206 22.1129 5.21918 19.7197 5.21918 19.7197C4.6616 18.2987 3.85361 17.9199 3.85361 17.9199C2.73721 17.1564 3.93872 17.1736 3.93872 17.1736C5.17477 17.26 5.8224 18.4417 5.8224 18.4417C6.92029 20.3217 8.70405 19.779 9.40226 19.4644C9.51452 18.6687 9.83525 18.126 10.1856 17.8188C7.45443 17.5092 4.58265 16.4532 4.58265 11.7372C4.58265 10.3963 5.06252 9.29597 5.84584 8.4374C5.72125 8.1253 5.29566 6.87321 5.96797 5.18074C5.96797 5.18074 7.00048 4.8489 9.35045 6.44022C10.3541 6.1672 11.3894 6.02783 12.4295 6.02574C13.4696 6.02743 14.5049 6.1668 15.5085 6.44022C17.8597 4.84767 18.891 5.18074 18.891 5.18074C19.5633 6.87321 19.1414 8.1253 19.0131 8.4374C19.8026 9.29597 20.2763 10.3951 20.2763 11.7372C20.2763 16.4656 17.402 17.5042 14.661 17.8089C15.0989 18.1889 15.4937 18.9389 15.4937 20.0861C15.4937 21.7317 15.4789 23.059 15.4789 23.4624C15.4789 23.7918 15.6985 24.1742 16.3264 24.0533C21.2138 22.4225 24.7345 17.8139 24.7345 12.3799C24.7345 5.58412 19.2265 0.0761719 12.4307 0.0761719Z" fill="white"/>
</svg>
