<svg width="29" height="17" viewBox="0 0 29 17" fill="none" xmlns="http://www.w3.org/2000/svg">
<path d="M15.9363 8.07635C15.9363 12.5034 12.3719 16.0924 7.97486 16.0924C3.57781 16.0924 0.0136719 12.5045 0.0136719 8.07635C0.0136719 3.64821 3.57808 0.0605469 7.97486 0.0605469C12.3716 0.0605469 15.9363 3.64929 15.9363 8.07635ZM24.6701 8.07635C24.6701 12.2439 22.8878 15.622 20.6894 15.622C18.491 15.622 16.7087 12.2428 16.7087 8.07635C16.7087 3.90989 18.491 0.530665 20.6894 0.530665C22.8878 0.530665 24.6701 3.90989 24.6701 8.07635ZM28.2424 8.07635C28.2424 11.8103 27.6155 14.837 26.8423 14.837C26.0691 14.837 25.4422 11.8092 25.4422 8.07635C25.4422 4.34352 26.0691 1.31573 26.8426 1.31573C27.616 1.31573 28.2424 4.34271 28.2424 8.07635Z" fill="white"/>
</svg>
