<svg width="29" height="18" viewBox="0 0 29 18" fill="none" xmlns="http://www.w3.org/2000/svg">
<path d="M15.9363 9.00018C15.9363 13.4272 12.3719 17.0162 7.97486 17.0162C3.57781 17.0162 0.0136719 13.4283 0.0136719 9.00018C0.0136719 4.57204 3.57808 0.984375 7.97486 0.984375C12.3716 0.984375 15.9363 4.57312 15.9363 9.00018ZM24.6701 9.00018C24.6701 13.1677 22.8878 16.5459 20.6894 16.5459C18.491 16.5459 16.7087 13.1666 16.7087 9.00018C16.7087 4.83372 18.491 1.45449 20.6894 1.45449C22.8878 1.45449 24.6701 4.83372 24.6701 9.00018ZM28.2424 9.00018C28.2424 12.7341 27.6155 15.7608 26.8423 15.7608C26.0691 15.7608 25.4422 12.733 25.4422 9.00018C25.4422 5.26735 26.0691 2.23956 26.8426 2.23956C27.616 2.23956 28.2424 5.26653 28.2424 9.00018Z" fill="black"/>
</svg>
