<svg width="411" height="502" viewBox="0 0 411 502" fill="none" xmlns="http://www.w3.org/2000/svg">
<path d="M78.5576 330.257L83.2581 355.186M78.5576 330.257L80.8233 236.593M78.5576 330.257L94.3252 299.455M83.2581 355.186L103.201 322.351M83.2581 355.186L135.389 371M83.2581 355.186L135.389 451.187M236.023 402.223L226.627 349.337M236.023 402.223L269.866 439.852M236.023 402.223L221.737 417.333M269.866 439.852H305.59M269.866 439.852L247.304 467.604M305.59 439.852L325.802 423.86M305.59 439.852L286.318 501M346.014 407.867L409 425.741L355.885 443.615M346.014 407.867L348.741 417.745M346.014 407.867L325.802 423.86M355.885 443.615L319.221 487.83M355.885 443.615L348.741 417.745M319.221 487.83L342.723 429.504M319.221 487.83L286.318 501M348.741 417.745L342.723 429.504M325.802 423.86L342.723 429.504M286.318 501L247.304 467.604M286.318 501L231.323 500.059M247.304 467.604L231.323 500.059M247.304 467.604L135.389 451.187M247.304 467.604L241.002 435.083L221.737 417.333M231.323 500.059L135.389 451.187M218.631 168.921L226.152 117.651M218.631 168.921L263.286 146.579M218.631 168.921L168.262 154.042M218.631 168.921V197.372M226.152 117.651L263.286 146.579M226.152 117.651L139.664 126.396M226.152 117.651L252.475 79.3072M263.286 146.579L235.347 239.632M263.286 146.579L284.438 193.38M139.664 126.396L154.235 63.6981M139.664 126.396L80.8233 114.358M139.664 126.396L168.262 154.042M252.475 283.22L284.438 193.38M252.475 283.22L192.442 226.649M252.475 283.22L165.572 279.858M252.475 283.22L216.484 375.282M252.475 283.22L235.347 239.632M284.438 193.38L275.037 109.184L263.286 63.5588M263.286 63.5588L168.806 1M263.286 63.5588L252.475 79.3072M168.806 1L40.4839 48.8391M168.806 1L163.45 24.048M20.2719 97.4252L1 63.5588V42.8627L11.8111 45.6849L20.7419 56.1989M20.2719 97.4252L91.2488 131.292M20.2719 97.4252L20.7419 56.1989M91.2488 131.292L80.8233 114.358M91.2488 131.292L168.262 154.042M91.2488 131.292L157.137 193.38M91.2488 131.292L80.8233 236.593M91.2488 131.292L165.572 279.858M235.347 239.632L218.631 197.372M154.235 63.6981L252.475 79.3072M154.235 63.6981L163.45 24.048M40.4839 48.8391L70.3977 97.4252M40.4839 48.8391L20.7419 56.1989M70.3977 97.4252L163.45 24.048M70.3977 97.4252L80.8233 114.358M157.137 193.38L218.631 197.372M157.137 193.38L192.442 226.649M80.8233 236.593L117.04 255.082M165.572 279.858L192.442 226.649M165.572 279.858L117.04 255.082M165.572 279.858L103.201 322.351M165.572 279.858L135.389 371M216.484 375.282L221.737 417.333M216.484 375.282L135.389 371M221.737 417.333L135.389 451.187M117.04 255.082L94.3252 299.455M94.3252 299.455L103.201 322.351M135.389 371V451.187" stroke="#B9FF1F"/>
</svg>
