<svg width="69" height="69" viewBox="0 0 69 69" fill="none" xmlns="http://www.w3.org/2000/svg">
<path d="M43.6548 0C30.0302 0 18.9824 11.0478 18.9824 24.6795C18.9824 38.3042 30.0302 49.3519 43.6548 49.3519C57.2866 49.3519 68.3344 38.3042 68.3344 24.6795C68.3344 11.0478 57.2866 0 43.6548 0Z" fill="#D28147"/>
<path d="M24.6795 18.9849C11.0478 18.9849 0 30.0326 0 43.6573C0 57.289 11.0478 68.3368 24.6795 68.3368C38.3042 68.3368 49.3519 57.289 49.3519 43.6573C49.3519 30.0326 38.3042 18.9849 24.6795 18.9849Z" fill="#F6B059"/>
<path d="M21.8345 37.9617C19.2078 37.9617 17.0865 40.0901 17.0865 42.7097C17.0865 45.3293 19.2078 47.4577 21.8345 47.4577C24.4541 47.4577 26.5753 45.3293 26.5753 42.7097C26.5753 40.0901 24.4541 37.9617 21.8345 37.9617ZM25.6286 26.5723C24.0554 26.5723 22.7812 27.8465 22.7812 29.4196C22.7812 30.9928 24.0554 32.267 25.6286 32.267C27.2018 32.267 28.476 30.9928 28.476 29.4196C28.476 27.8465 27.2018 26.5723 25.6286 26.5723ZM32.2701 49.3512C30.1773 49.3512 28.476 51.0525 28.476 53.1524C28.476 55.2452 30.1773 56.9465 32.2701 56.9465C34.37 56.9465 36.0713 55.2452 36.0713 53.1524C36.0713 51.0525 34.37 49.3512 32.2701 49.3512ZM10.445 43.6564C8.87185 43.6564 7.59766 44.9306 7.59766 46.5038C7.59766 48.077 8.87185 49.3512 10.445 49.3512C12.0182 49.3512 13.2924 48.077 13.2924 46.5038C13.2924 44.9306 12.0182 43.6564 10.445 43.6564ZM37.018 37.9617C35.4449 37.9617 34.1707 39.2359 34.1707 40.8091C34.1707 42.3823 35.4449 43.6564 37.018 43.6564C38.5912 43.6564 39.8654 42.3823 39.8654 40.8091C39.8654 39.2359 38.5912 37.9617 37.018 37.9617ZM18.9871 55.0459C17.9336 55.0459 17.0865 55.9001 17.0865 56.9465C17.0865 57.9929 17.9336 58.8471 18.9871 58.8471C20.0335 58.8471 20.8806 57.9929 20.8806 56.9465C20.8806 55.9001 20.0335 55.0459 18.9871 55.0459Z" fill="#6D420D"/>
<path d="M37.9621 7.59642C35.8693 7.59642 34.168 9.2906 34.168 11.3905C34.168 13.4905 35.8693 15.1846 37.9621 15.1846C40.062 15.1846 41.7633 13.4905 41.7633 11.3905C41.7633 9.2906 40.062 7.59642 37.9621 7.59642ZM48.4048 17.0853C46.8316 17.0853 45.5574 18.3595 45.5574 19.9326C45.5574 21.5058 46.8316 22.78 48.4048 22.78C49.978 22.78 51.2522 21.5058 51.2522 19.9326C51.2522 18.3595 49.978 17.0853 48.4048 17.0853ZM50.2983 5.6958C48.7251 5.6958 47.4509 6.97 47.4509 8.54316C47.4509 10.1163 48.7251 11.3905 50.2983 11.3905C51.8715 11.3905 53.1456 10.1163 53.1456 8.54316C53.1456 6.97 51.8715 5.6958 50.2983 5.6958ZM56.9469 26.5741C55.9005 26.5741 55.0463 27.4283 55.0463 28.4747C55.0463 29.5211 55.9005 30.3753 56.9469 30.3753C57.9933 30.3753 58.8475 29.5211 58.8475 28.4747C58.8475 27.4283 57.9933 26.5741 56.9469 26.5741Z" fill="#7A441D"/>
</svg>
