<svg width="100" height="121" viewBox="0 0 100 121" fill="none" xmlns="http://www.w3.org/2000/svg">
<path d="M19.4389 79.3631L20.5565 85.2963M19.4389 79.3631L19.9776 57.0712M19.4389 79.3631L23.1876 72.0323M20.5565 85.2963L25.2979 77.4816M20.5565 85.2963L32.9502 89.06M20.5565 85.2963L32.9502 108.145M56.8756 96.4911L54.6416 83.9043M56.8756 96.4911L64.9217 105.447M56.8756 96.4911L53.479 100.087M64.9217 105.447H73.4147M64.9217 105.447L59.5576 112.052M73.4147 105.447L78.22 101.641M73.4147 105.447L68.833 120M83.0253 97.8344L98 102.088L85.3721 106.342M83.0253 97.8344L83.6738 100.185M83.0253 97.8344L78.22 101.641M85.3721 106.342L76.6555 116.865M85.3721 106.342L83.6738 100.185M76.6555 116.865L82.2431 102.984M76.6555 116.865L68.833 120M83.6738 100.185L82.2431 102.984M78.22 101.641L82.2431 102.984M68.833 120L59.5576 112.052M68.833 120L55.7581 119.776M59.5576 112.052L55.7581 119.776M59.5576 112.052L32.9502 108.145M59.5576 112.052L58.0593 104.312L53.479 100.087M55.7581 119.776L32.9502 108.145M52.7408 40.9652L54.5288 28.7629M52.7408 40.9652L63.3571 35.6477M52.7408 40.9652L40.7658 37.4239M52.7408 40.9652V47.7367M54.5288 28.7629L63.3571 35.6477M54.5288 28.7629L33.9666 30.8443M54.5288 28.7629L60.7869 19.6371M63.3571 35.6477L56.7149 57.7945M63.3571 35.6477L68.3859 46.7865M33.9666 30.8443L37.4309 15.9221M33.9666 30.8443L19.9776 27.9793M33.9666 30.8443L40.7658 37.4239M60.7869 68.1684L68.3859 46.7865M60.7869 68.1684L46.5144 54.7046M60.7869 68.1684L40.1261 67.3681M60.7869 68.1684L52.2302 90.079M60.7869 68.1684L56.7149 57.7945M68.3859 46.7865L66.1509 26.7479L63.3571 15.889M63.3571 15.889L40.8952 1M63.3571 15.889L60.7869 19.6371M40.8952 1L10.3871 12.3857M40.8952 1L39.6217 6.48542M5.5818 23.9492L1 15.889V10.9633L3.57028 11.635L5.69355 14.1373M5.5818 23.9492L22.4562 32.0094M5.5818 23.9492L5.69355 14.1373M22.4562 32.0094L19.9776 27.9793M22.4562 32.0094L40.7658 37.4239M22.4562 32.0094L38.1208 46.7865M22.4562 32.0094L19.9776 57.0712M22.4562 32.0094L40.1261 67.3681M56.7149 57.7945L52.7408 47.7367M37.4309 15.9221L60.7869 19.6371M37.4309 15.9221L39.6217 6.48542M10.3871 12.3857L17.499 23.9492M10.3871 12.3857L5.69355 14.1373M17.499 23.9492L39.6217 6.48542M17.499 23.9492L19.9776 27.9793M38.1208 46.7865L52.7408 47.7367M38.1208 46.7865L46.5144 54.7046M19.9776 57.0712L28.5879 61.4715M40.1261 67.3681L46.5144 54.7046M40.1261 67.3681L28.5879 61.4715M40.1261 67.3681L25.2979 77.4816M40.1261 67.3681L32.9502 89.06M52.2302 90.079L53.479 100.087M52.2302 90.079L32.9502 89.06M53.479 100.087L32.9502 108.145M28.5879 61.4715L23.1876 72.0323M23.1876 72.0323L25.2979 77.4816M32.9502 89.06V108.145" stroke="black"/>
</svg>
