<svg width="20" height="19" viewBox="0 0 20 19" fill="none" xmlns="http://www.w3.org/2000/svg">
<path fill-rule="evenodd" clip-rule="evenodd" d="M13.0718 13.9282L18.0206 18.3406C18.3029 18.592 18.7366 18.5673 18.9881 18.2851C19.2403 18.0028 19.2149 17.5698 18.9325 17.3176L14.0351 12.951C15.1697 11.5821 15.8521 9.82529 15.8521 7.90944C15.8521 3.54441 12.3078 0 7.94264 0C3.5775 0 0.0332031 3.54429 0.0332031 7.90944C0.0332031 12.2746 3.5775 15.8189 7.94264 15.8189C9.89871 15.8189 11.6905 15.1064 13.0715 13.9278L13.0718 13.9282ZM7.94292 1.37066C11.5516 1.37066 14.482 4.3011 14.482 7.90979C14.482 11.5185 11.5516 14.4489 7.94292 14.4489C4.33422 14.4489 1.40379 11.5185 1.40379 7.90979C1.40379 4.3011 4.33422 1.37066 7.94292 1.37066Z" fill="white"/>
</svg>
