<svg width="32" height="25" viewBox="0 0 32 25" fill="none" xmlns="http://www.w3.org/2000/svg">
<path d="M20.4841 0.0761719C20.1772 0.62585 19.9037 1.19352 19.6651 1.77611C17.3203 1.40529 14.9319 1.40529 12.5871 1.77611C12.3485 1.19352 12.075 0.62585 11.7681 0.0761719C9.55939 0.453559 7.41224 1.12942 5.3856 2.08519C1.76156 7.31525 0.118023 13.6648 0.749414 19.9963C3.11115 21.7718 5.76184 23.1259 8.58457 23.9989C9.22732 23.1499 9.80096 22.2507 10.3 21.3099C9.37902 20.9704 8.49385 20.5407 7.65733 20.0272C7.88677 19.8746 8.1038 19.7041 8.3064 19.5173C10.7457 20.6922 13.4185 21.3024 16.1261 21.3024C18.8337 21.3024 21.5065 20.6922 23.9458 19.5173C24.1622 19.7027 24.3785 19.8727 24.5949 20.0272C23.7538 20.5367 22.8695 20.9711 21.9522 21.3254C22.4306 22.2874 22.9889 23.2076 23.6213 24.0762C26.4405 23.2061 29.0866 21.8517 31.441 20.0736C32.0875 13.7409 30.4427 7.38618 26.8048 2.16246C24.8009 1.18691 22.675 0.485192 20.4841 0.0761719ZM10.9954 16.3801C10.222 16.3246 9.50029 15.9716 8.98162 15.3953C8.46295 14.819 8.18771 14.0642 8.21368 13.2893C8.18379 12.5134 8.45767 11.7564 8.97712 11.1792C9.49657 10.6021 10.2206 10.2502 10.9954 10.1985C11.7702 10.2502 12.4942 10.6021 13.0137 11.1792C13.5331 11.7564 13.807 12.5134 13.7771 13.2893C13.807 14.0652 13.5331 14.8222 13.0137 15.3994C12.4942 15.9765 11.7702 16.3284 10.9954 16.3801ZM21.2568 16.3801C20.4835 16.3246 19.7617 15.9716 19.243 15.3953C18.7244 14.819 18.4491 14.0642 18.4751 13.2893C18.4452 12.5134 18.7191 11.7564 19.2386 11.1792C19.758 10.6021 20.4821 10.2502 21.2568 10.1985C22.033 10.2464 22.7594 10.5971 23.2797 11.1751C23.7999 11.7532 24.0724 12.5124 24.0385 13.2893C24.0724 14.0663 23.7999 14.8254 23.2797 15.4035C22.7594 15.9815 22.033 16.3322 21.2568 16.3801Z" fill="white"/>
</svg>
