<svg width="31" height="24" viewBox="0 0 31 24" fill="none" xmlns="http://www.w3.org/2000/svg">
<path d="M27.0906 5.98121C27.1101 6.24433 27.1101 6.50595 27.1101 6.76757C27.1101 14.7741 21.0162 24 9.87921 24C6.44806 24 3.2605 23.0061 0.578125 21.28C1.06528 21.3357 1.5344 21.3552 2.0411 21.3552C4.76706 21.3618 7.41583 20.4503 9.56046 18.7676C8.29659 18.7447 7.07141 18.3277 6.05599 17.5748C5.04057 16.822 4.28561 15.7708 3.89651 14.5681C4.27089 14.6237 4.64679 14.6613 5.04072 14.6613C5.58351 14.6613 6.12931 14.5861 6.63601 14.4553C5.26439 14.1784 4.03104 13.4349 3.14565 12.3514C2.26027 11.2678 1.77751 9.91101 1.77948 8.51171V8.43654C2.5869 8.8861 3.52362 9.16727 4.51598 9.20486C3.68464 8.65243 3.00296 7.9028 2.53177 7.02287C2.06058 6.14293 1.81453 5.16004 1.81556 4.16188C1.81556 3.03721 2.11477 2.00576 2.63952 1.10663C4.16134 2.9786 6.0594 4.51005 8.21075 5.60179C10.3621 6.69353 12.7188 7.32121 15.1282 7.44418C15.035 6.99311 14.9778 6.5255 14.9778 6.05638C14.9774 5.26094 15.1338 4.47321 15.438 3.73824C15.7423 3.00327 16.1883 2.33546 16.7508 1.77299C17.3133 1.21053 17.9811 0.764432 18.7161 0.460211C19.451 0.155989 20.2388 -0.000394506 21.0342 7.4737e-07C22.7783 7.4737e-07 24.3526 0.730736 25.4592 1.91254C26.8151 1.65035 28.1153 1.15538 29.3023 0.449568C28.8504 1.84912 27.9037 3.03587 26.6395 3.7875C27.8421 3.65034 29.0173 3.3341 30.1263 2.84927C29.298 4.05678 28.2717 5.11567 27.0906 5.98121Z" fill="black"/>
</svg>
