<svg width="31" height="25" viewBox="0 0 31 25" fill="none" xmlns="http://www.w3.org/2000/svg">
<path d="M27.0906 6.05738C27.1101 6.3205 27.1101 6.58212 27.1101 6.84375C27.1101 14.8503 21.0162 24.0762 9.87921 24.0762C6.44806 24.0762 3.2605 23.0823 0.578125 21.3562C1.06528 21.4118 1.5344 21.4314 2.0411 21.4314C4.76706 21.438 7.41583 20.5264 9.56046 18.8437C8.29659 18.8209 7.07141 18.4039 6.05599 17.651C5.04057 16.8981 4.28561 15.847 3.89651 14.6443C4.27089 14.6999 4.64679 14.7375 5.04072 14.7375C5.58351 14.7375 6.12931 14.6623 6.63601 14.5315C5.26439 14.2546 4.03104 13.5111 3.14565 12.4275C2.26027 11.344 1.77751 9.98718 1.77948 8.58789V8.51271C2.5869 8.96228 3.52362 9.24344 4.51598 9.28103C3.68464 8.7286 3.00296 7.97898 2.53177 7.09904C2.06058 6.2191 1.81453 5.23621 1.81556 4.23806C1.81556 3.11339 2.11477 2.08194 2.63952 1.1828C4.16134 3.05478 6.0594 4.58623 8.21075 5.67796C10.3621 6.7697 12.7188 7.39738 15.1282 7.52035C15.035 7.06928 14.9778 6.60167 14.9778 6.13256C14.9774 5.33711 15.1338 4.54938 15.438 3.81441C15.7423 3.07944 16.1883 2.41163 16.7508 1.84916C17.3133 1.2867 17.9811 0.840604 18.7161 0.536383C19.451 0.232161 20.2388 0.0757774 21.0342 0.0761726C22.7783 0.0761726 24.3526 0.806908 25.4592 1.98871C26.8151 1.72652 28.1153 1.23155 29.3023 0.52574C28.8504 1.92529 27.9037 3.11204 26.6395 3.86367C27.8421 3.72651 29.0173 3.41027 30.1263 2.92544C29.298 4.13295 28.2717 5.19184 27.0906 6.05738Z" fill="white"/>
</svg>
