<svg width="14" height="15" viewBox="0 0 14 15" fill="none" xmlns="http://www.w3.org/2000/svg">
<path fill-rule="evenodd" clip-rule="evenodd" d="M13.4755 4.51748V4.52026C13.8234 5.35803 14.0003 6.24827 14.0003 7.16715C14.0003 11.0029 10.8779 14.1253 7.04215 14.1253C3.20643 14.1253 0.0839844 11.0029 0.0839844 7.16715C0.0839844 3.33141 3.20643 0.208984 7.04215 0.208984C7.76696 0.208984 8.48312 0.32191 9.16497 0.542579C9.16778 0.542579 9.16778 0.545358 9.16778 0.545358H9.1765C9.18624 0.548687 9.19414 0.554624 9.2023 0.560733L9.20999 0.566396L9.21329 0.568678L9.21699 0.571046L9.21898 0.572213L9.22303 0.574392C9.23772 0.583143 9.25522 0.585923 9.26957 0.597454C9.26957 0.597454 9.26957 0.598398 9.27012 0.599187C9.27046 0.599753 9.27115 0.600234 9.27231 0.600234C9.28796 0.616175 9.29922 0.632133 9.31199 0.650202L9.31569 0.655504C9.31741 0.657752 9.31919 0.65988 9.32105 0.661973L9.3251 0.666469C9.32873 0.670467 9.33237 0.674465 9.33553 0.678909C9.338 0.682307 9.3402 0.685979 9.34191 0.690097C9.34658 0.698248 9.3496 0.707136 9.35186 0.716419L9.35303 0.721602L9.35434 0.727933L9.35626 0.739396L9.35893 0.746723L9.36182 0.75429L9.36202 0.754856C9.36683 0.767383 9.37177 0.780338 9.37376 0.794666C9.37376 0.799402 9.37314 0.804224 9.37252 0.809217V0.811516C9.37177 0.81802 9.37095 0.824901 9.37095 0.832434C9.37095 0.85867 9.3682 0.881732 9.36223 0.907986V0.910766C9.35887 0.920529 9.35296 0.929418 9.34727 0.93786C9.3428 0.944552 9.33855 0.950953 9.33594 0.957285C9.32722 0.974787 9.32125 0.992272 9.30972 1.00658C8.93832 1.45907 8.73557 2.02447 8.73557 2.60418C8.73557 3.99263 9.86596 5.12345 11.2548 5.12345C11.9101 5.12345 12.5304 4.87136 13.0031 4.41331C13.007 4.41006 13.0109 4.4073 13.0148 4.40481C13.0205 4.40124 13.0261 4.39824 13.0317 4.39526C13.0367 4.39265 13.0416 4.39004 13.0465 4.38707C13.064 4.37554 13.0755 4.36401 13.093 4.35526H13.0989C13.1192 4.3469 13.1427 4.34373 13.1658 4.34095C13.18 4.34095 13.1948 4.33219 13.2091 4.33497C13.2266 4.33497 13.2409 4.34095 13.2584 4.34373C13.2787 4.34651 13.2989 4.34929 13.3164 4.35526C13.324 4.35891 13.3304 4.36394 13.3371 4.36943L13.3408 4.37248L13.3483 4.37832C13.3713 4.38985 13.3916 4.40138 13.4118 4.41888C13.4118 4.42055 13.4118 4.42122 13.4124 4.42149C13.4129 4.42166 13.4135 4.42166 13.4146 4.42166C13.4262 4.43597 13.4349 4.45346 13.4437 4.47096C13.4524 4.48527 13.4667 4.49402 13.4727 4.51151C13.4727 4.51326 13.4727 4.51405 13.4732 4.51487L13.474 4.51597L13.4755 4.51748ZM2.11338 8.03672C2.11338 8.67767 2.63269 9.19655 3.27321 9.19655C3.91374 9.19655 4.43305 8.67767 4.43305 8.03672C4.43305 7.39578 3.91374 6.8769 3.27321 6.8769C2.63228 6.8769 2.11338 7.39618 2.11338 8.03672ZM5.01234 3.10796C4.53401 3.10796 4.14278 3.49961 4.14278 3.97792C4.14278 4.45626 4.53442 4.8479 5.01234 4.84751C5.49109 4.84751 5.88232 4.45626 5.88232 3.97792C5.88232 3.4992 5.49068 3.10796 5.01234 3.10796ZM6.7523 10.9361C6.7523 11.4148 7.14353 11.8061 7.62186 11.8061C8.1002 11.8061 8.49184 11.4144 8.49184 10.9361C8.49184 10.4578 8.1002 10.0665 7.62186 10.0665C7.14353 10.0665 6.7523 10.4578 6.7523 10.9361ZM7.04215 7.02202C7.04215 7.66297 7.56146 8.18185 8.20199 8.18185C8.84251 8.18185 9.36141 7.66297 9.36182 7.02202C9.36182 6.38108 8.84251 5.8622 8.20199 5.8622C7.56105 5.8622 7.04215 6.38148 7.04215 7.02202Z" fill="black"/>
</svg>
