<svg width="36" height="24" viewBox="0 0 36 24" fill="none" xmlns="http://www.w3.org/2000/svg">
<path d="M34.3176 3.77335C34.1225 3.04951 33.7412 2.3894 33.2117 1.85871C32.6822 1.32801 32.023 0.945248 31.2996 0.748513C28.6173 0.0120024 17.8865 1.30114e-05 17.8865 1.30114e-05C17.8865 1.30114e-05 7.15744 -0.0119771 4.47345 0.69199C3.75052 0.897779 3.09262 1.28596 2.56292 1.81925C2.03322 2.35255 1.64951 3.01306 1.44862 3.73738C0.741229 6.41965 0.734378 11.9829 0.734378 11.9829C0.734378 11.9829 0.727526 17.5735 1.42978 20.2284C1.82373 21.6963 2.97988 22.8558 4.44948 23.2515C7.15915 23.988 17.8608 24 17.8608 24C17.8608 24 28.5916 24.012 31.2739 23.3097C31.9975 23.1133 32.6574 22.7315 33.1882 22.2018C33.719 21.6722 34.1024 21.0132 34.3004 20.29C35.0095 17.6095 35.0147 12.048 35.0147 12.048C35.0147 12.048 35.0489 6.45562 34.3176 3.77335ZM14.454 17.1367L14.4626 6.85984L23.3812 12.0069L14.454 17.1367Z" fill="black"/>
</svg>
