<svg width="25" height="24" viewBox="0 0 25 24" fill="none" xmlns="http://www.w3.org/2000/svg">
<path fill-rule="evenodd" clip-rule="evenodd" d="M12.4307 0C5.6349 0 0.126953 5.50795 0.126953 12.3038C0.126953 17.7389 3.6513 22.3513 8.54122 23.9796C9.15678 24.0906 9.37882 23.7119 9.37882 23.3863C9.37882 23.0939 9.36895 22.3192 9.36525 21.2941C5.94206 22.0367 5.21918 19.6436 5.21918 19.6436C4.6616 18.2225 3.85361 17.8438 3.85361 17.8438C2.73721 17.0802 3.93872 17.0975 3.93872 17.0975C5.17477 17.1838 5.8224 18.3656 5.8224 18.3656C6.92029 20.2456 8.70405 19.7028 9.40226 19.3882C9.51452 18.5926 9.83525 18.0498 10.1856 17.7426C7.45443 17.433 4.58265 16.377 4.58265 11.6611C4.58265 10.3202 5.06252 9.2198 5.84584 8.36122C5.72125 8.04913 5.29566 6.79704 5.96797 5.10456C5.96797 5.10456 7.00048 4.77273 9.35045 6.36405C10.3541 6.09102 11.3894 5.95166 12.4295 5.94957C13.4696 5.95126 14.5049 6.09063 15.5085 6.36405C17.8597 4.7715 18.891 5.10456 18.891 5.10456C19.5633 6.79704 19.1414 8.04913 19.0131 8.36122C19.8026 9.2198 20.2763 10.3189 20.2763 11.6611C20.2763 16.3894 17.402 17.4281 14.661 17.7327C15.0989 18.1127 15.4937 18.8627 15.4937 20.0099C15.4937 21.6555 15.4789 22.9829 15.4789 23.3863C15.4789 23.7156 15.6985 24.098 16.3264 23.9771C21.2138 22.3463 24.7345 17.7377 24.7345 12.3038C24.7345 5.50795 19.2265 0 12.4307 0Z" fill="black"/>
</svg>
