<svg width="32" height="24" viewBox="0 0 32 24" fill="none" xmlns="http://www.w3.org/2000/svg">
<path d="M20.4841 0C20.1772 0.549678 19.9037 1.11735 19.6651 1.69994C17.3203 1.32912 14.9319 1.32912 12.5871 1.69994C12.3485 1.11735 12.075 0.549678 11.7681 0C9.55939 0.377387 7.41224 1.05325 5.3856 2.00901C1.76156 7.23908 0.118023 13.5886 0.749414 19.9202C3.11115 21.6956 5.76184 23.0497 8.58457 23.9227C9.22732 23.0737 9.80096 22.1745 10.3 21.2337C9.37902 20.8942 8.49385 20.4645 7.65733 19.9511C7.88677 19.7984 8.1038 19.6279 8.3064 19.4411C10.7457 20.6161 13.4185 21.2262 16.1261 21.2262C18.8337 21.2262 21.5065 20.6161 23.9458 19.4411C24.1622 19.6265 24.3785 19.7965 24.5949 19.9511C23.7538 20.4605 22.8695 20.8949 21.9522 21.2492C22.4306 22.2113 22.9889 23.1314 23.6213 24C26.4405 23.13 29.0866 21.7755 31.441 19.9974C32.0875 13.6647 30.4427 7.31001 26.8048 2.08628C24.8009 1.11073 22.675 0.409021 20.4841 0ZM10.9954 16.3039C10.222 16.2484 9.50029 15.8955 8.98162 15.3192C8.46295 14.7429 8.18771 13.988 8.21368 13.2131C8.18379 12.4372 8.45767 11.6802 8.97712 11.1031C9.49657 10.5259 10.2206 10.1741 10.9954 10.1223C11.7702 10.1741 12.4942 10.5259 13.0137 11.1031C13.5331 11.6802 13.807 12.4372 13.7771 13.2131C13.807 13.9891 13.5331 14.746 13.0137 15.3232C12.4942 15.9004 11.7702 16.2522 10.9954 16.3039ZM21.2568 16.3039C20.4835 16.2484 19.7617 15.8955 19.243 15.3192C18.7244 14.7429 18.4491 13.988 18.4751 13.2131C18.4452 12.4372 18.7191 11.6802 19.2386 11.1031C19.758 10.5259 20.4821 10.1741 21.2568 10.1223C22.033 10.1702 22.7594 10.5209 23.2797 11.099C23.7999 11.677 24.0724 12.4362 24.0385 13.2131C24.0724 13.9901 23.7999 14.7493 23.2797 15.3273C22.7594 15.9054 22.033 16.2561 21.2568 16.3039Z" fill="black"/>
</svg>
